<svg id="Layer_1" data-name="Layer 1" xmlns="http://www.w3.org/2000/svg" viewBox="0 0 67.98 99"><path d="M56.24,94.93a4.66,4.66,0,0,0,1.48,1.3c.64.42,1.2,1,1,1.78s-1,1-1.75,1.08c-2,.25-3.43-.89-4.83-2a5.81,5.81,0,0,1-1.93-2.43.74.74,0,0,0-.88-.5c-1.1.06-2.2.14-3.31.15-3.17,0-6.33.14-9.49-.15a1.67,1.67,0,0,0-1.74,1c-1.48,2.19-3.36,3.93-6.25,4a2.3,2.3,0,0,1-.77-.11c-.56-.19-1.14-.41-1.24-1.08a1.56,1.56,0,0,1,.74-1.49A6.44,6.44,0,0,0,29,94.94c-.25-.58-.57-.74-1.18-.35a4.32,4.32,0,0,1-3.86.24c-.39-.13-.77-.29-.82-.79A1.11,1.11,0,0,1,23.72,93a8.15,8.15,0,0,0,2-1.34,5.24,5.24,0,0,1-3.31-2.81,2.48,2.48,0,0,1-.32-1.14q0-4,0-8,0-20.45,0-40.9c0-.51,0-1-.64-1.1-.45-.09-.58-.52-.6-1a36.94,36.94,0,0,1,0-5.22,4.53,4.53,0,0,0-4-5.19A1.41,1.41,0,0,1,16,24a9.13,9.13,0,0,1,5.49-3.87c.63-.18.8-.43.8-1q0-.13,0-.26c0-1.52.07-1.55,1.51-1.72A2.31,2.31,0,0,0,24,15.91c0-2.82,1.65-4.49,4.06-5.54a17.28,17.28,0,0,1,7.26-1.13,12.56,12.56,0,0,0,4.17-1.16c.47-.16.18-.67.24-1s0-.51-.33-.61a10.65,10.65,0,0,1-2.58-1.58,2.72,2.72,0,0,1-1.08-3.07A2.31,2.31,0,0,1,38.24.14q4.36,0,8.72,0A2.3,2.3,0,0,1,49.5,1.83,2.75,2.75,0,0,1,48.4,4.9a9.9,9.9,0,0,1-2.59,1.58c-.4.11-.35.43-.31.71s-.25.85.31,1.05a2.74,2.74,0,0,1,1.38,1c.2.3.46.14.71.12a19.4,19.4,0,0,1,9,.91c2.66,1,4.35,2.84,4.33,5.88a1.82,1.82,0,0,0,.17,1c1.45.19,1.57.25,1.49,1.71a15.47,15.47,0,0,0,.18,2.44,67,67,0,0,1,.19,7.06c0,.17,0,.34,0,.48a1.59,1.59,0,0,0,1,.11,42.07,42.07,0,0,1,7.22.33C76,29.91,79,32.49,81,36.56s2.4,8.67,2.6,13.21c.33,7.17-1.56,13.8-4.69,20.14a9,9,0,0,1-2.75,3.22A18.72,18.72,0,0,1,64,76.93a1.24,1.24,0,0,0-.85.14c0,.87,0,1.79,0,2.72,0,2.41,0,4.83,0,7.24a4.74,4.74,0,0,1-3.08,4.41l-.56.2a5.48,5.48,0,0,0,1.7,1.18c.47.26.92.55.89,1.18s-.61.8-1.1.94a4.42,4.42,0,0,1-3.62-.34C56.76,94.22,56.74,94.24,56.24,94.93Zm-25-5c7.64.11,15.19.19,22.72,0V44.47l-4.49.69c1.09.34,2.24-.15,3.3.38-2.55.81-5.17.43-7.61.59,2.24.52,4.7.11,7.1.55a49.28,49.28,0,0,1-8.34,1.07c0,.37,0,.63,0,.89q0,17.74,0,35.49a11.26,11.26,0,0,0-.09,2.33c.24,1.18-.23,1.63-1.43,1.41-.5-.09-1.29,0-1.1-.92a15.13,15.13,0,0,0,0-3.11q0-17.61,0-35.23c0-.26,0-.51,0-.86a46.5,46.5,0,0,1-8.35-1.07c2.4-.42,4.86,0,7.05-.54-2.4-.19-5,.27-7.57-.61,1.07-.49,2.2,0,3.29-.36l-4.49-.68ZM63.1,71c1.24,0,2.33,0,3.44-.09,2.2-.25,4.06-1.36,6-2.19a4.49,4.49,0,0,0,2.53-2.58c2.66-6.38,2.9-13,2.34-19.79a20.9,20.9,0,0,0-2.07-7.61,5.31,5.31,0,0,0-3.86-2.92,58.17,58.17,0,0,0-7.08-.69c0,.53-.08,1-.1,1.55s-.14.88-.58,1c-.67.14-.66.57-.66,1.09q0,15.65,0,31.31C63.1,70.33,63.1,70.62,63.1,71ZM17,25.24c2.88.38,4.22,2.08,4.69,4.61a.94.94,0,0,1,0,.17c0,.45.27.6.66.64.75.07,1.5.19,2.25.21,1.66,0,3.31,0,5,0,5.8.15,11.6.59,17.41.32,4.53-.21,9.06-.39,13.59-.37a1.25,1.25,0,0,0,.85-.15V20.63c-1.49-.16-2.9.05-4.31,0-5.89-.18-11.79-.39-17.68-.25-3.86.09-7.73.14-11.59.2A2.45,2.45,0,0,0,25.65,22,2.49,2.49,0,0,1,24,23.34a7.75,7.75,0,0,1-2.57.44A7.91,7.91,0,0,0,17,25.24Zm46.42,6.37a362.06,362.06,0,0,1-41.68,0v5.19a170.78,170.78,0,0,0,41.68,0ZM24.76,17.31c11.92-.57,23.78-.57,35.73,0A11,11,0,0,0,60,14.37c-.93-2.27-2.88-3.18-5.06-3.69a35.74,35.74,0,0,0-10.1-.42c-2.49.13-5-.1-7.45,0a34.65,34.65,0,0,0-7.18.49C26.51,11.56,24.74,13.39,24.76,17.31Zm.27,26a1,1,0,0,0-.11.71c.05,5.32.08,10.63,0,16q-.14,11.94,0,23.89a6.26,6.26,0,0,0,2.89,4.92c0-.32,0-.52,0-.71-.14-13,0-26,0-39.06,0-1.48,0-3,0-4.45,0-.31.07-.68-.41-.73A13,13,0,0,1,25,43.28Zm35.22,0a8.76,8.76,0,0,1-1.79.4c-1,0-1.16.53-1.16,1.42,0,14.3.18,28.6,0,42.89,0,.21-.1.46.16.69a6.78,6.78,0,0,0,2.78-5.34c0-7.61,0-15.23,0-22.84,0-4.36-.15-8.72,0-13.07C60.28,46.07,60.25,44.7,60.25,43.28Zm-2.8,47.48a17.25,17.25,0,0,0,2.22-.62,3.32,3.32,0,0,0,2.3-2.9C62,71.2,62,55.15,62,39.1A1.61,1.61,0,0,0,61.87,38L59,38.34c-1.73.2-1.68.2-1.75,2,0,.93.2,1.33,1.18,1.26a4.85,4.85,0,0,1,1.29.21c1.29.27,1.36.33,1.38,1.65,0,2,0,4.07,0,6.1q0,16.31,0,32.61a8.53,8.53,0,0,1-3.64,7.49C57.08,90,57.26,90.28,57.44,90.77Zm-29.69-.08c.31-.52.21-.8-.25-1.13a7.6,7.6,0,0,1-3.43-6.26C24,70.22,24,57.14,24,44.06c0-.29,0-.58,0-.87,0-.73.28-1.27,1.13-1.34.66-.06,1.32-.25,2-.28s.78-.26.71-.8a5,5,0,0,1,0-.61c0-1.63,0-1.63-1.65-1.8a23.65,23.65,0,0,0-3.07-.27c0,.43,0,.77,0,1.12q0,24,0,48.05a1.88,1.88,0,0,0,.26.88C24.33,89.91,25.91,90.47,27.75,90.69ZM55,38.58c0,.85,0,1.6,0,2.35q0,23.1,0,46.2a27.83,27.83,0,0,1-.2,6,.87.87,0,0,0,.48,1,1.4,1.4,0,0,0,.73-1.2A16.54,16.54,0,0,0,56.28,90c-.13-2-.17-4.06-.16-6.1q.08-22.23.14-44.46a1.3,1.3,0,0,0-.12-.87ZM29.78,94.17c.34-.1.49-.28.48-.47-.34-18.34,0-36.68-.13-55.09a2.28,2.28,0,0,0-1.15,0c0,.21,0,.44,0,.66,0,3.89,0,7.79,0,11.68.1,11.27.18,22.55.13,33.82,0,2.06-.17,4.12-.12,6.18C29,92.06,28.84,93.27,29.78,94.17ZM62,18.09H23.21a2,2,0,0,0,0,1.56c12.89-.35,25.83-.32,38.74,0A2.58,2.58,0,0,0,62,18.09ZM54,90.78a193.16,193.16,0,0,1-22.73,0c-.19,1.6,0,1.94,1.57,2,2.55.12,5.11.21,7.66.24,3.86.06,7.72-.06,11.58-.22C53.86,92.75,54.16,92.46,54,90.78ZM44.31,41.13a80.28,80.28,0,0,1,9.69.33V38.63H44.31Zm-3.42-2.51H31.2v2.84c3.26-.49,6.47-.23,9.69-.35Zm-.1,3.48H31.24a5.33,5.33,0,0,0,0,1.73,94,94,0,0,0,9.93.8C41.59,43.65,41,42.93,40.79,42.11Zm13.16,0H44.4c-.24.84-.83,1.58-.36,2.55A95.77,95.77,0,0,0,54,43.82,6.51,6.51,0,0,0,54,42.11ZM51.21,94c.58,2.47,4.58,4.74,6.41,3.51a12.34,12.34,0,0,1-3.79-4A4.84,4.84,0,0,1,51.21,94ZM27.47,97.57c2.12,1.1,5.84-1,6.53-3.53a5.25,5.25,0,0,1-2.65-.41A11.78,11.78,0,0,1,27.47,97.57Zm-2-76.92c-3.43-.29-7.3,1.34-8.43,3.58a8.31,8.31,0,0,1,5.1-1.4,8.42,8.42,0,0,0,1.55-.2c.22,0,.55-.07.59-.3C24.43,21.62,25.05,21.27,25.5,20.66ZM61,93.92a8.21,8.21,0,0,1-2.36-1.68,1,1,0,0,0-1-.48c-.36,0-.41.31-.42.56,0,.43-.26.91.26,1.26A3.37,3.37,0,0,0,61,93.92Zm-36.64,0a3.08,3.08,0,0,0,3.5-.39c.46-.47.25-1.05,0-1.53s-.79-.3-.91-.13A8.77,8.77,0,0,1,24.33,93.88ZM66.05,74.14c0,.5.22.9.77.85a1,1,0,0,0,1-1c0-.5-.26-.87-.78-.85A1,1,0,0,0,66.05,74.14ZM68.31,31a.9.9,0,0,0-1,.88.78.78,0,0,0,.84.88.91.91,0,0,0,1-1C69.19,31.3,68.86,31,68.31,31ZM57.39,43.11a4.41,4.41,0,0,0,2.73-.5,6.75,6.75,0,0,0-2.72-.33A1.25,1.25,0,0,0,57.39,43.11Zm-32.32-.48a4.57,4.57,0,0,0,2.71.47c.11-.34.17-.61-.05-.86A7.37,7.37,0,0,0,25.07,42.63Z" transform="translate(-15.68 -0.13)"/><path d="M51,85.69c0-.4,0-.61,0-.81a.52.52,0,0,1,.37-.53.54.54,0,0,1,.65.3,3,3,0,0,1,.36,1.41c0,.42-.1.78-.56.84s-.73-.27-.8-.72A3.2,3.2,0,0,1,51,85.69Z" transform="translate(-15.68 -0.13)"/><path d="M37.23,56.41c0,.52-.15,1-.75,1s-.66-.41-.65-.85,0-1.1.64-1.15S37.14,56,37.23,56.41Z" transform="translate(-15.68 -0.13)"/><path d="M35.89,51.38c-.09.41-.14,1-.75.93s-.68-.56-.69-1,.2-.88.74-.86S35.89,50.86,35.89,51.38Z" transform="translate(-15.68 -0.13)"/><path d="M38.36,52.2c0,.44-.14.76-.55.79-.61,0-.76-.45-.82-.92s.11-.72.54-.74C38.13,51.3,38.27,51.76,38.36,52.2Z" transform="translate(-15.68 -0.13)"/><path d="M53.69,84.21c0,.45,0,.83-.46.78-.56-.06-.56-.59-.6-1s0-.75.4-.73C53.64,83.29,53.58,83.89,53.69,84.21Z" transform="translate(-15.68 -0.13)"/><path d="M51.92,81.19c0,.28-.09.57-.42.54s-.31-.36-.3-.61,0-.5.34-.48S51.91,80.93,51.92,81.19Z" transform="translate(-15.68 -0.13)"/><path d="M24.89,28.18c0-.38.06-.69.39-.65.6.07.58.62.66,1.05.05.28-.07.56-.4.53C24.9,29.07,25,28.48,24.89,28.18Z" transform="translate(-15.68 -0.13)"/><path d="M55.34,14.38c0-.39.1-.8.58-.83s.65.36.65.76-.07.87-.62.88S55.4,14.77,55.34,14.38Z" transform="translate(-15.68 -0.13)"/><path d="M54.28,14c0,.29-.11.53-.44.54s-.5-.24-.49-.56.12-.52.44-.53S54.26,13.68,54.28,14Z" transform="translate(-15.68 -0.13)"/><path d="M55.39,13.15a.45.45,0,0,1-.45-.52c0-.29.09-.6.48-.57s.38.3.39.56S55.72,13.12,55.39,13.15Z" transform="translate(-15.68 -0.13)"/></svg>