<?xml version="1.0" encoding="utf-8"?>
<!-- Generator: Adobe Illustrator 23.0.6, SVG Export Plug-In . SVG Version: 6.00 Build 0)  -->
<svg version="1.1" id="Layer_1" xmlns="http://www.w3.org/2000/svg" xmlns:xlink="http://www.w3.org/1999/xlink" x="0px" y="0px"
	 width="864px" height="864px" viewBox="0 0 864 864" enable-background="new 0 0 864 864" xml:space="preserve">
<g>
	<path d="M802.9559,521.5228c0.8264-4.3442,2.9944-7.7549,6.7037-10.1656c7.2328-4.7013,14.416-9.4829,21.73-14.0548
		c4.7908-2.9949,9.3139-6.1554,11.7757-11.4875c0-3.35,0-6.7005,0-10.0505c-2.358-5.3238-6.9373-7.3004-12.2491-8.5185
		c-23.2448-5.3292-46.4612-10.7832-69.6851-16.205c-3.4444-0.8042-6.2081-2.5771-8.3229-5.5128
		c-3.4078-4.7307-8.5927-7.0321-13.614-9.5284c-7.5456-3.7506-15.0767-7.5316-22.6082-11.3117
		c-0.4533-0.2272-0.8561-0.5559-1.7149-1.1225c1.7999-0.716,3.2458-1.4605,4.7806-1.8763
		c27.7328-7.5116,55.4738-14.9918,83.2191-22.4568c6.4459-1.7343,10.9889-5.4555,12.8878-12.0277
		c0.6414-2.2201,1.2656-4.4461,1.8601-6.679c0.9864-3.7041-0.3651-6.6785-2.9489-9.2542
		c-5.9833-5.9649-12.9491-10.5413-20.2833-14.6617c-3.6928-2.0746-7.2457-4.4491-10.6517-6.9718
		c-4.9532-3.6684-6.3943-9.047-6.2573-14.8792c0.276-11.7529,4.7588-21.7638,13.0809-30.0134
		c4.7795-4.738,10.8516-7.273,17.0772-9.4696c2.0609-0.7273,4.1295-1.4345,6.1816-2.1863
		c11.6984-4.2874,10.0782-20.0089,3.1926-24.6274c-4.4825-3.0062-9.1891-5.6935-13.8903-8.3564
		c-19.5513-11.0756-40.1536-19.6264-61.5946-26.3877c-20.9445-6.6045-41.6721-13.893-62.535-20.7598
		c5.6779-31.6414-16.6207-62.4355-50.1953-69.0782c-2.6957-0.5542-5.3906-0.7804-8.0361-0.9834
		c-0.0984-6.7267-1.2059-20.773-1.6057-27.9953c-0.7455-25.9782-63.0602-45.3385-139.2374-43.1189
		c-76.1704,2.2059-137.3284,25.154-136.5475,51.1488c0.0289,1.6775,0.3202,3.2369,0.8599,4.836
		c-0.4427,4.6739-3.2357,38.8586,4.4368,77.2828c-1.495,0.202-2.9911,0.3965-4.486,0.5995
		c-21.9922,2.9876-44.0003,5.886-65.9349,9.2571c-19.2545,2.9587-38.4085,6.5668-57.6233,9.7914
		c-10.2114,1.7137-20.4833,3.0728-30.6814,4.859c-14.7272,2.5791-29.0869,6.5888-43.0164,12.0326
		c-8.1754,3.1948-15.4479,7.8652-19.2087,16.1016c-2.4333,5.3287-3.9821,11.1177-5.4372,16.826
		c-3.3703,13.2198-4.8533,26.6909-4.6027,40.3475c0.268,14.6068,2.1341,28.9746,6.2491,43.0197
		c0.3076,1.0496,0.6406,2.0967,0.8631,3.1659c0.6293,3.0238-0.014,3.974-3.0912,4.5c-3.9947,0.6832-8.0002,1.3037-11.9993,1.9615
		c-17.0064,2.7961-34.0122,5.5961-51.0183,8.3946c-2.1576,0.3551-4.3264,0.6529-6.471,1.0746
		c-5.4556,1.0726-9.2445,4.7263-13.1867,8.303c-13.0424,11.8328-19.6073,26.9563-22.7857,43.8748
		c-0.3772,2.008-0.7786,4.0117-1.1689,6.0178c0,9.9212,0,19.8429,0,29.7646c0.7695,4.0229,1.3685,8.088,2.339,12.062
		c3.6598,14.9869,9.5803,28.9242,19.5429,40.9083c4.9666,5.9742,11.4574,9.9236,18.2516,13.3951
		c15.068,7.7001,30.1805,15.3126,45.2739,22.9632c1.033,0.5236,2.079,1.0266,3.0809,1.6055
		c2.087,1.2053,2.1386,1.9468,0.3056,3.6101c-2.6219,2.3788-5.332,4.668-7.8562,7.1467
		c-10.4568,10.2679-18.0784,22.2751-21.5469,36.616c-4.2443,17.5483-4.5034,35.0536,2.9515,51.8522
		c5.646,12.7227,13.5042,24.1367,23.2611,34.1382c4.3872,4.497,9.9769,6.9282,15.9108,8.7144
		c31.9612,9.62,64.308,17.8001,96.7225,25.6991c34.0366,8.2942,68.073,16.6154,102.2504,24.2983
		c33.1747,7.4582,66.4776,14.3742,99.8195,21.0522c25.4057,5.0882,50.9708,9.3776,76.4453,14.1273
		c13.4622,2.5101,26.8661,5.3356,40.3323,7.8226c4.0296,0.7444,8.1745,1.0305,12.2787,1.1696
		c7.2062,0.2444,14.4217,0.2341,21.6335,0.2694c0.7905,0.0039,1.6623-0.2454,2.3632-0.6245
		c28.9063-15.6255,56.9597-32.7042,84.1785-51.0685c45.4181-30.6428,90.535-61.7337,135.6768-92.7839
		c10.9184-7.5101,21.7344-15.2318,32.0378-23.55c6.618-5.3429,12.1953-11.9714,18.2725-17.9896
		c3.8625-3.8246,4.616-8.4201,3.6169-13.5372c-1.6564-8.4838-6.2166-14.7048-14.1734-18.2781
		c-7.4513-3.3461-14.8779-6.7534-22.403-9.9261c-3.7467-1.58-6.1426-3.6816-5.9548-8.1478c0.087-2.0673-0.7662-4.1595-1.0486-6.2597
		c-0.7258-5.4016,0.4694-10.6255,1.5827-15.8552C801.2212,530.0942,802.1388,525.8176,802.9559,521.5228z M620.2943,165.8183
		c23.2155,5.1972,39.9351,19.5912,37.6487,40.563c-6.9963-2.0504-14.007-4.0575-20.9598-6.2458
		c-6.4564-2.0316-12.9045-4.0905-19.3588-6.1277C618.8608,185.2133,619.7727,175.8392,620.2943,165.8183z M619.0895,117.5909
		c-0.2361,2.4231-0.8,5.7433-2.162,6.5673C618.0632,122.0211,618.7895,119.8201,619.0895,117.5909z M607.4926,237.506
		c2.6871-7.8022,5.0437-16.3271,7.0052-25.6075c12.4507,3.6941,24.9001,7.3925,37.3448,11.106
		c-8.8564,12.5246-25.8085,17.2834-44.3503,14.5018L607.4926,237.506z M480.9048,78.899
		c68.6438-2.0014,124.7979,13.0523,125.3907,33.5535c0.6001,20.5225-54.5877,38.7746-123.2384,40.7726l-0.0001,0.0003
		c-68.6475,1.9909-124.8004-13.0104-125.394-33.5469C357.0633,99.1735,412.254,80.8968,480.9048,78.899z M452.3587,303.2825
		c-92.2707-25.9445-85.5033-136.2645-85.5033-136.2645l0.0002-0.0002l1.127-12.1837l26.1789,15.6838
		C386.1255,239.4252,452.3587,303.2825,452.3587,303.2825z M197.2384,245.4473c19.1243-3.3559,38.2443-6.7431,57.4016-9.9021
		c14.7823-2.438,29.6231-4.5196,44.4266-6.8313c11.1843-1.7465,22.3329-3.7286,33.5299-5.383
		c6.6001-0.9754,13.2137-1.8599,19.8282-2.7385c14.0836,51.5054,49.2892,104.519,134.9108,101.3062
		c0,0,73.7744,11.0438,111.6211-64.1483c2.2773,0.7107,4.5963,1.4237,7.0027,1.8415c28.0784,5.5616,55.2339-7.4406,67.3974-30.14
		c3.1019,0.9325,6.2058,1.8584,9.3068,2.7944c25.0862,7.5733,49.3046,17.5528,73.6511,27.1591
		c12.8621,5.075,25.707,10.1935,38.5569,15.2994c0.7,0.2782,1.3759,0.6176,2.564,1.1553c-3.3344,0.7386-6.1334,1.4066-8.952,1.9762
		c-19.0297,3.8461-37.9763,8.2051-57.1226,11.343c-16.812,2.7549-33.082,7.4322-49.5439,11.509
		c-13.2213,3.2746-26.6886,5.5427-40.0061,8.4451c-27.1287,5.9124-54.2704,11.7759-81.329,17.997
		c-20.4203,4.6949-40.7208,9.9119-61.0733,14.9007c-9.1719,2.2485-18.2583,4.9731-27.5362,6.6227
		c-8.2075,1.4595-16.6178,1.8606-24.959,2.4248c-1.9965,0.1352-4.38-0.4599-6.0643-1.5354
		c-9.0279-5.7636-19.0218-9.3457-28.8336-13.3883c-20.5763-8.4774-41.0367-17.2374-61.6329-25.6658
		c-29.8203-12.203-59.5487-24.6598-89.64-36.1615c-22.3199-8.5317-45.158-15.7058-67.751-23.5265
		c-1.4828-0.5133-2.8422-1.3821-4.4762-2.1937C191.1051,245.7339,194.3251,245.9587,197.2384,245.4473z M763.5513,332.4344
		c0.2039,2.6913,0.4041,5.407,0.2676,8.0949c-0.4296,8.4798,1.5499,16.6149,3.2768,24.7954
		c1.292,6.1211,1.0246,6.4091-5.1019,8.0107c-26.1254,6.8308-52.4761,12.6845-78.8221,18.5862
		c-22.0721,4.9437-43.9831,10.603-66.002,15.7896c-26.6548,6.2784-53.3724,12.2912-80.0179,18.6082
		c-25.2025,5.9747-50.3444,12.2045-75.5211,18.2884c-2.3083,0.5578-4.6643,0.955-7.0189,1.2763
		c-3.7075,0.5064-6.9701-1.5971-8.3491-5.4403c-2.4415-6.8044-4.2468-13.762-4.6631-21.0218
		c-0.7224-12.5954-0.0359-25.1006,2.678-37.4378c0.6311-2.8681,1.7237-5.6563,2.825-8.3922
		c1.0043-2.4949,3.0718-3.8927,5.6791-4.4833c17.1164-3.8755,34.2117-7.847,51.3538-11.605
		c32.4622-7.1163,64.9635-14.0549,97.426-21.1697c34.4083-7.541,68.7361-15.4605,103.2089-22.6904
		c15.278-3.2046,30.8212-5.1509,46.2543-7.6031c5.7806-0.9188,11.5897-1.6588,17.3877-2.466
		c0.8824-0.1229,1.7755-0.17,3.0935-0.2919c-1.3601,3.1384-2.3624,6.0075-3.7943,8.6434
		C764.2144,318.3654,763.0027,325.1947,763.5513,332.4344z M133.5355,309.8606c0.4723-12.6125,3.0071-24.9282,8.014-36.5523
		c4.9702-11.5389,14.4696-17.8099,26.1658-21.3788c5.6024-1.7093,10.7423-1.39,16.3037,0.6661
		c22.1281,8.1801,44.5434,15.5937,66.5876,23.9863c25.177,9.5857,50.1593,19.6999,75.0686,29.9664
		c34.4906,14.216,68.8356,28.7851,103.2386,43.2136c3.0512,1.2798,6.0438,2.7349,7.8424,5.6818
		c0.7262,1.1901,1.0202,2.6438,1.5109,3.9774c-0.1628,0.1837-0.3257,0.3678-0.4883,0.5515
		c-1.4047-0.2757-2.8911-0.3433-4.2012-0.859c-21.901-8.6224-43.8564-17.1135-65.6447-26.0135
		c-28.2339-11.5325-56.9173-21.8221-85.6445-32.0298c-28.5384-10.1406-56.9198-20.7235-85.3581-31.1448
		c-7.4889-2.7446-14.916-5.6568-22.4024-8.4078c-12.5709-4.619-23.0687,0.4829-29.1616,10.8998
		c-5.8793,10.0525-7.9156,21.0331-8.5589,32.5c-1.0367,18.4774,3.0352,36.0376,8.781,53.366
		c1.6238,4.8972,3.8985,9.2375,8.376,12.0306c64.4232,40.1864,271.1998,86.6746,272.1928,86.8049
		c13.544,1.7808,26.814,0.0651,40.0542-2.6898c46.5183-9.6793,92.688-20.8709,138.8992-31.8853
		c52.2156-12.4455,104.4474-24.8219,156.6708-37.2341c4.6901-1.1147,9.3936-2.1844,14.0491-3.4308
		c5.1242-1.3718,6.5941-3.684,5.9928-8.904c-0.108-0.9389-0.1428-1.8861-0.2523-3.3911
		c5.6777,3.9945,11.6971,6.6314,16.3112,11.2695c-0.0615,0.2953-0.123,0.5907-0.1844,0.8865
		c-0.3142,0.0509-0.6284,0.1146-0.9426,0.1797l-31.6223,7.9362c-0.033,0.0235-0.0671,0.0436-0.0999,0.0676
		c-0.6136,0.1313-1.2231,0.2782-1.8344,0.4182l-7.5336,1.8905c-6.0018,1.6128-11.9711,3.3613-18.0856,4.6219
		c-14.8466,3.0601-29.5023,7.0438-44.2429,10.6201c-6.1213,1.4855-12.2997,2.7598-18.3669,4.4388
		c-5.403,1.4948-10.7689,3.1859-16.0283,5.1259v-0.3747c-20.0887,6.6133-46.3629,13.162-73.9884,19.1945
		c-1.2601,0.2449-2.5196,0.4942-3.7831,0.7214c-4.0777,0.7332-8.1859,1.3052-12.2465,2.1187
		c-0.9927,0.1993-1.9123,0.7332-2.8595,1.1671c-68.877,14.2135-139.3234,24.6833-139.3234,24.6833
		c-8.0261,0.3556-16.0449,0.2674-24.05-1.0892c-10.2697-1.7401-20.681-2.7055-30.8945-4.7042
		c-18.1787-3.5567-35.9979-8.6116-53.6545-14.2003c-12.1927-3.8589-24.207-8.3545-36.5388-11.6834
		c-16.883-4.5578-33.0532-11.0222-49.3713-17.1105c-23.0236-8.5905-45.7839-17.8271-68.0998-28.1469
		c-7.5632-3.4974-13.1839-8.7938-16.9195-16.2186c-4.5847-9.1126-8.7558-18.4059-10.4014-28.5363
		C135.0366,331.9388,133.1196,320.9631,133.5355,309.8606z M430.4468,416.1944c0.3323,5.526,0.463,11.0741,1.0714,16.5693
		c0.3196,2.8847,1.5105,5.6681,2.2311,8.5166c0.3028,1.196,0.4075,2.4425,0.6022,3.6659c-1.4072,0.1969-2.8842,0.7724-4.2101,0.528
		c-7.6502-1.4091-15.2842-2.9225-22.8877-4.5666c-21.6725-4.6871-43.4141-9.094-64.9713-14.2669
		c-41.7982-10.0294-82.7768-22.8124-122.9742-38.0544c-17.4977-6.6349-34.928-13.4471-52.3951-20.1628
		c-5.4298-2.0879-9.0903-5.8047-10.3916-11.5291c-2.7917-12.279-5.6144-24.5545-8.134-36.8907
		c-0.9739-4.7679-1.1611-9.6959-1.7067-14.5515c0.2705-10.2538,3.129-19.5589,9.1015-27.8835
		c2.0957-2.9214,4.6241-5.219,8.374-5.6318c0.9259-0.1024,1.952-0.0602,2.8244,0.2346c8.643,2.921,17.3031,5.7993,25.8831,8.8976
		c35.1336,12.6879,70.2195,25.5076,105.3631,38.1671c43.5027,15.6711,86.9866,31.3863,129.6681,49.2187
		c5.3223,2.2236,6.0628,3.2026,4.6851,8.7566C429.3852,390.0913,429.6607,403.1191,430.4468,416.1944z M66.0541,392.0146
		c3.8354-0.6725,7.6705-1.3464,11.5062-2.0169c17.4207-3.0464,34.8425-6.0849,52.2611-9.143c3.399-0.5965,6.57-0.2943,9.1891,2.2098
		c7.8068,7.4645,16.921,12.9294,26.4604,17.875c18.1368,9.4026,36.6314,17.9686,56.0502,24.36
		c13.8002,4.5416,27.7975,8.4833,41.6033,13.0082c3.5227,1.1544,7.0164,2.3979,10.5026,3.664l-0.0059-0.0049l74.9177,22.2065
		c5.1715,1.1,10.2501,2.5776,15.3319,4.2321c8.8966,2.8965,18.1101,4.9711,27.3187,6.6951
		c4.6633,0.8728,9.6222,0.3262,14.4401,0.1788c8.3004-0.2542,16.61-0.4995,24.888-1.1167
		c8.7837-0.6548,17.7138-0.9477,26.2471-2.873c7.4065-1.6716,14.8199-2.3239,22.2636-3.2805
		c5.1477-0.6617,10.1729-2.2338,15.3104-3.0282c8.962-1.3865,18.0029-2.2779,26.9475-3.7589
		c12.1779-2.0174,24.3591-4.0994,36.4274-6.675c28.8545-6.1569,57.6778-12.47,86.4439-19.026
		c12.901-2.9401,25.6349-6.6128,38.4443-9.9555c0.2484-0.0647,0.497-0.1371,0.7352-0.2322
		c3.7541-1.4962,5.7719-1.5006,7.6401,1.0628c0.4645,0.381,0.9683,0.8096,1.5458,1.2959
		c0.6023,0.5079,29.01,17.0547,39.9539,22.2065c0.2911,0.1371,0.6526,0.1993,0.8654,0.4124
		c0.4258,0.4266,0.7714,0.9335,1.1502,1.4071c-0.4565,0.3012-0.8889,0.8125-1.3735,0.8679
		c-2.419,0.2757-4.8948,0.8199-7.2711,0.5554c-2.118-0.2356-9.0122,0.6729-17.4575,2.0541
		c-0.2449,0.0872-0.4907,0.1617-0.7354,0.2537c-1.3582,0.5113-2.9487,0.716-4.404,0.6107c-3.5858,0.6186-7.3181,1.292-10.992,1.9772
		c-0.4304,0.2395-0.8567,0.4961-1.2752,0.7841c-2.2664,1.5619-4.8076,1.3106-7.2737,1.3821
		c-1.4233,0.0411-2.8304,0.1533-4.228,0.3091c-7.0842,1.4282-12.6489,2.656-14.4716,3.2212
		c-4.0843,1.2656-8.4138,1.7387-12.6318,2.5752c-13.6251,2.7021-27.1703,5.9576-40.9005,7.9244
		c-9.5623,1.3694-19.0003,3.209-28.4763,4.9569c-13.5928,2.5071-27.2102,4.8815-40.8174,7.3098
		c-0.3796,0.0681-0.7806,0.1063-1.1386,0.1778c-6.0181,3.0542-12.6349,3.2878-19.1299,4.1057
		c-1.7875,0.2248-3.5757,0.4741-5.3452,0.8091c-0.4904,0.097-1.2245,0.2395-0.1848,0.0309
		c-12.8525,2.4797-25.6572,5.2381-38.5602,7.4156c-13.0635,2.2045-26.2388,3.7379-39.3338,5.7661
		c-9.0875,1.4076-18.1273,3.1281-27.1796,4.7571c-6.7481,1.2141-13.4893,2.4572-20.2584,3.5283
		c-12.622,2.1667-25.7228,4.3854-27.9808,4.7787c-7.4757,1.3018-15.0215,2.2015-22.4917,3.5312
		c-6.3889,1.1368-12.6742,2.8764-19.0757,3.9172c-5.96,0.9692-12.0096,1.3993-18.0266,1.9973
		c-1.4612,0.145-2.58-0.4824-3.1661-1.9806c-1.9419-4.9638-5.4952-8.4265-10.1235-10.963
		c-48.3121-26.4807-96.5699-53.0604-144.9292-79.4545c-22.0309-12.0243-44.2493-23.7047-66.3955-35.5174
		c-3.7445-1.9973-7.5583-3.8643-11.329-5.8135c-0.5534-0.286-1.0442-0.693-1.564-1.0442
		C65.9992,392.3658,66.0266,392.1904,66.0541,392.0146z M697.3932,512.4969c2.6653,4.0842,5.7413,7.9009,8.6547,11.822
		c0.4124,0.5554,0.9218,1.0383,1.6182,1.8127c-3.86,0.7615-7.4202,1.4575-10.9776,2.1667
		c-20.3065,4.0479-40.6042,8.1414-60.9208,12.1379c-21.6385,4.2565-43.2931,8.4318-64.9441,12.6257
		c-26.5106,5.1353-53.0299,10.2249-79.5359,15.3846c-27.8918,5.4291-55.7651,10.9542-83.6601,16.3671
		c-17.9871,3.4905-35.9829,6.939-54.0039,10.2484c-14.9269,2.7407-29.9027,5.2145-44.8419,7.8896
		c-3.4095,0.6108-6.7328,1.6966-10.1399,2.3254c-4.8258,0.8904-7.8395-1.1368-9.021-5.8704
		c-1.7384-6.9645-2.5669-14.0485-2.4893-21.2216c0.0784-7.2427,1.2435-14.3223,3.1169-21.3284
		c2.934-10.9733,10.253-16.9376,21.1303-18.8051c21.552-3.7012,43.1326-7.2344,64.6894-10.9071
		c19.7037-3.3574,39.402-6.7488,59.0887-10.205c-0.6235,0.744-0.9005,1.3843-0.8133,1.9157
		c0.4692,2.8759,2.8152,11.8475,7.037,26.9127c0.3095,1.2891-0.0127,1.5163-0.9678,0.6797
		c-12.014-13.5469-18.9138-20.1725-20.7025-19.8806c-1.819-0.0509-2.1158,2.4665-0.8884,7.5513
		c5.65,25.1799,9.623,37.5828,11.919,37.2076c2.6584-0.285,3.7986-1.8856,3.4215-4.8016
		c-2.3734-10.2813-3.6644-16.0624-3.8741-17.3447c-0.3977-1.5222-0.1165-1.9277,0.8434-1.2166
		c10.9678,12.0042,17.5317,18.6993,19.6935,20.0834c2.438,0.4947,3.5332-0.3898,3.2873-2.6594
		c-6.3435-23.6519-9.6847-35.4503-10.0236-35.3955c-1.1992-7.3455-2.7574-11.9339-4.6703-13.7947
		c0.1764-0.0311,0.3531-0.0612,0.5296-0.0921c21.8467-3.8491,43.6559-7.9117,65.5098-11.7182
		c27.2399-4.7439,54.5371-9.1626,81.7571-14.0161c27.4066-4.8869,54.7452-10.1534,82.1205-15.2171
		c12.9609-2.3974,25.9378-4.7091,38.9088-7.0527c0.1801-0.0328,0.3771,0.0284,0.7595,0.0637
		c-2.459,4.3883-4.9147,8.6669-7.2695,13.0004c-3.1125,5.7283-5.7613,11.6198-6.7696,18.1635
		C694.2369,504.0533,694.8063,508.5322,697.3932,512.4969z M754.7122,541.3628c-0.9448-1.557-0.4964-2.297,1.6738-3.663
		c8.1172-5.1097,16.2615-10.1759,24.399-15.2534c1.7477-1.0907,3.4811-2.2098,5.2822-3.2055
		c0.6063-0.335,1.402-0.3271,2.1111-0.4756c0.0791,0.6681,0.31,1.3591,0.214,2.0007c-1.0547,7.059-2.1343,14.1141-3.2587,21.1619
		c-1.2922,8.1013-0.7285,16.176,0.2013,24.2557c0.1541,1.3385,0.3152,2.7069,0.2048,4.0396
		c-0.5373,6.4797,1.6,12.1384,5.0644,17.4548c2.4506,3.7604,2.4178,3.8143-1.3067,6.484
		c-34.4339,24.6853-68.7621,49.5199-103.3445,73.9955c-32.8964,23.2825-66.0608,46.187-99.1059,69.2595
		c-3.3255,2.322-6.6023,4.7159-9.9706,6.9743c-3.9203,2.6281-6.4268,2.1471-9.1907-1.6882
		c-7.3553-10.2053-11.2737-21.5855-11.6819-34.1789c-0.0894-2.7628-0.218-5.5505-0.6707-8.2698
		c-0.793-4.7639-0.0184-9.3364,1.1047-13.9226c1.1774-4.8085,2.3817-9.6141,3.3849-14.4609
		c1.4155-6.8381,5.1866-11.964,10.9858-15.6676c46.6063-29.7661,93.1966-59.5572,139.8736-89.2116
		c4.5341-2.8808,9.5728-4.9971,14.4841-7.2334c1.3046-0.5941,3.0065-0.3164,4.5259-0.4388
		c9.2115,0.4217,16.9004-2.6183,22.9023-9.3305C753.8961,548.4409,756.3384,544.8641,754.7122,541.3628z M424.9029,641.3081
		c18.4926,3.2369,37.0086,6.3983,55.3939,10.1788c19.7039,4.0524,39.2644,8.8016,58.8977,13.2002
		c1.808,0.405,3.6887,0.4937,5.5393,0.697c3.0149,0.3306,4.1052,1.5104,3.5175,4.4594c-0.5884,2.9513-1.617,5.8121-2.3375,8.7408
		c-2.2867,9.2958-2.1277,18.7645-1.9201,28.2361c0.1567,7.1481,0.0865,14.3482,2.6941,21.1491
		c2.2085,5.7602,4.7073,11.4091,7.0835,17.1052c0.2634,0.6313,0.5646,1.2469,0.9735,2.1451
		c-3.8787-0.4814-7.4344-0.9609-10.9996-1.3581c-11.3222-1.2597-22.6649-2.3543-33.9669-3.7737
		c-8.8033-1.1054-17.5584-2.5958-26.3338-3.9235c-15.0111-2.2711-30.0587-4.3286-45.0221-6.8802
		c-17.8055-3.0361-35.6242-6.0971-53.2845-9.8629c-32.9437-7.0248-65.8259-14.3566-98.6418-21.9583
		c-27.1118-6.2808-54.0796-13.1816-81.1322-19.7214c-20.3699-4.9241-40.7851-9.6597-61.1543-14.5867
		c-7.1723-1.7353-14.4313-3.208-21.0807-6.7123c-3.0841-1.6255-5.2038-3.6958-6.3181-7.0781
		c-3.6742-11.1534-6.0998-22.4955-5.3615-34.3013c0.7149-11.4312,3.3294-22.3226,10.8014-31.4024
		c2.3888-2.9028,5.2989-5.4276,8.209-7.8378c3.8907-3.2222,8.1481-3.252,12.5889-0.8747
		c10.4383,5.5877,21.0529,10.8571,31.3694,16.658c19.9144,11.1985,39.7008,22.6263,59.4822,34.0594
		c9.028,5.2175,17.9113,10.6852,26.8722,16.0198c9.2345,5.4972,19.321,6.727,29.8054,5.843
		c19.888-1.6775,39.1576-6.58,58.4821-11.2108c7.3122-1.7524,14.6379-3.4803,22.0209-4.8864
		c2.6425-0.5035,5.6046-0.5579,8.194,0.0896C394.2964,637.2783,409.7074,638.6482,424.9029,641.3081z M407.4111,626.763
		c0.0455-0.3002,0.0909-0.601,0.1364-0.9017c2.6604-0.2733,5.315-0.6823,7.9822-0.7958c9.7478-0.4149,19.1624,1.5663,28.5713,3.8687
		c9.6672,2.3656,19.4291,4.3477,29.1632,6.4341c8.842,1.8949,17.7121,3.6605,26.5527,5.5623
		c15.8954,3.42,31.7792,6.8935,47.6634,10.3645c0.9324,0.2037,1.8636,0.5064,2.72,0.9188c0.3454,0.1666,0.4885,0.7533,0.7236,1.1485
		c-0.3568,0.1969-0.728,0.5863-1.0687,0.5613c-3.0533-0.2238-6.1497-0.2669-9.1436-0.8355
		c-33.5303-6.3724-67.0451-12.827-100.5633-19.2631c-10.0348-1.9268-20.0709-3.8461-30.0942-5.8297
		C409.128,627.8116,408.29,627.1842,407.4111,626.763z M492.9874,633.2985c-14.4352-2.8837-28.764-6.2994-43.1392-9.4814
		c-0.4271-0.0945-0.8424-0.2419-1.2632-0.3644c-0.0121-0.1318-0.0241-0.2635-0.0361-0.3953
		c8.9478-2.8152,17.7389-6.3861,26.8777-8.2795c16.2845-3.3735,32.5147-7.0193,48.8376-10.2146
		c13.1846-2.5811,26.3188-5.4212,39.5141-7.9435c8.0095-1.531,16.2001-2.2221,24.1199-4.0925
		c14.8186-3.5004,29.5291-7.4743,44.2301-11.4527c18.3055-4.9535,36.5528-10.1225,54.8381-15.1519
		c1.1291-0.3105,2.3711-0.2106,3.5606-0.3012c0.0506,0.2258,0.1013,0.452,0.1517,0.6783c-0.6318,0.3914-1.2482,0.8116-1.8981,1.1706
		c-5.0701,2.8005-10.2465,5.4246-15.1963,8.423c-6.4908,3.9314-12.7117,8.3109-19.2256,12.2011
		c-4.739,2.8298-9.9114,4.9378-14.6303,7.7971c-8.6929,5.2679-17.1566,10.9125-25.787,16.2858
		c-7.5953,4.7287-15.3645,9.1812-22.8973,14.0054c-2.7245,1.7446-5.0062,4.19-7.4544,6.3557
		c-6.3602,5.6265-13.4631,10.1372-21.0072,13.9741c-0.6751,0.3433-1.5893,0.4041-2.3673,0.3301
		C537.3383,644.666,515.4048,637.7774,492.9874,633.2985z M735.5469,547.2184c-7.639,1.7631-15.3384,3.2662-23.015,4.8663
		c-10.5104,2.1902-21.0279,4.3481-31.5344,6.5585c-5.3422,1.1235-10.6495,2.4165-16.002,3.4861
		c-17.0827,3.4137-34.2012,6.652-51.2654,10.1553c-26.7653,5.4947-53.5022,11.128-80.2418,16.7466
		c-15.9797,3.3574-31.9186,6.9126-47.9201,10.1607c-9.7615,1.9811-19.6505,3.3392-29.4005,5.3698
		c-7.4165,1.5447-14.6499,3.9637-22.0608,5.5437c-15.5305,3.3109-31.1215,6.3391-46.693,9.4579
		c-22.8824,4.5833-45.768,9.1503-68.6548,13.7115c-9.1452,1.8229-18.294,3.6282-27.4495,5.3977
		c-1.1259,0.218-2.4001,0.4771-3.4321,0.1572c-1.1757-0.3639-2.8313-1.1617-3.1041-2.1089
		c-1.0878-3.7776-3.5573-6.1818-6.7686-8.0513c-10.7912-6.2827-21.4753-12.7599-32.4042-18.7933
		c-34.6481-19.1284-69.4282-38.0172-104.0795-57.1397c-23.6071-13.0273-47.1122-26.2412-70.5966-39.489
		c-5.0387-2.8426-9.8406-6.1187-14.6489-9.3477c-1.542-1.0354-2.7541-2.562-4.1171-3.8638
		c0.1798-0.2086,0.3597-0.4168,0.5395-0.6255c0.5124,0.3091,1.0245,0.6191,1.5371,0.9276
		c18.911,11.3876,37.5711,23.2209,56.8045,34.0349c18.7215,10.5261,37.9521,20.1613,57.1008,29.9096
		c22.9894,11.704,46.123,23.1259,69.2056,34.6471c10.7683,5.3748,21.5867,10.649,32.3391,16.0551
		c8.4049,4.2262,17.0723,4.4481,26.1323,2.5874c24.3737-5.0064,48.7894-9.8095,73.1994-14.6392
		c27.2456-5.3898,54.4981-10.745,81.7569-16.0677c24.8621-4.8556,49.7359-9.6519,74.6061-14.4662
		c24.487-4.74,48.9717-9.4937,73.4655-14.1984c29.1094-5.5907,58.2309-11.1187,87.3397-16.7123
		c7.7638-1.4918,15.5079-3.089,23.2468-4.7057c6.0546-1.2651,8.5471-3.8878,9.691-9.9623c0.0237-0.1263,0.0431-0.2537,0.0705-0.3796
		c0.6688-3.0479,1.461-3.4048,3.9698-1.6133c4.1917,2.993,8.3416,6.0447,12.4938,9.093c0.9846,0.7224,1.9839,1.4517,2.8471,2.3077
		C742.7122,540.4019,741.3053,545.8892,735.5469,547.2184z M279.6945,604.7877c0.131,0.2742,0.1888,0.5833,0.3616,1.1333
		c-16.7083-7.7643-33.1995-15.317-49.5942-23.0739c-22.2697-10.5364-44.5801-20.9978-66.6638-31.9147
		c-26.6777-13.1874-52.2314-28.4045-77.5043-44.0913c-8.7505-5.4315-17.5247-10.8248-26.3195-16.1839
		c-2.512-1.5305-4.2992-3.5895-5.5441-6.2401c-7.0747-15.0638-6.7575-30.3705-1.5899-45.8481
		c2.0669-6.1902,4.5253-12.1839,8.7082-17.3181c2.3783-2.919,3.8621-3.1918,7.3742-1.7901
		c22.4285,8.95,43.1469,21.274,64.3527,32.6234c26.3247,14.0891,52.5231,28.4143,78.7979,42.5965
		c23.2209,12.5341,46.4275,25.0908,68.8776,38.9855c0.1093,0.0676,0.22,0.1337,0.33,0.2008
		c4.2421,2.5972,4.4948,3.5567,1.9375,7.8387c-3.6717,6.1485-5.4314,12.9352-6.2102,19.9335
		c-0.7964,7.1545-1.4118,14.357-1.5455,21.5493C275.3245,590.6206,276.4316,597.951,279.6945,604.7877z M74.4497,526.5889
		c-4.1775-2.2755-8.5728-4.1473-12.8154-6.3082c-16.3447-8.3236-25.6484-21.7183-28.6648-39.7099
		c-0.4187-2.4968-1.8794-4.8213-2.283-7.3186c-0.8395-5.1945-1.2939-10.4507-1.9065-15.6814
		c-0.0291-13.1586,2.2087-25.9543,5.508-38.5525c2.0054-7.657,7.2114-13.3976,12.8375-18.7169
		c0.2336-0.2209,0.4672-0.4437,0.7182-0.6436c1.5404-1.2259,2.9879-3.2942,4.6508-3.4867c3.2351-0.3742,6.6546-0.4178,9.8007,1.2577
		c15.0509,8.0155,30.1747,15.8949,45.2059,23.9472c37.1015,19.8752,74.2673,39.6339,111.2097,59.8011
		c23.6117,12.8902,46.8798,26.4092,70.2632,39.7142c1.161,0.6607,2.0656,1.889,2.8808,3.0052
		c0.6808,0.9326-0.0283,2.0448-1.1801,1.8288c-1.2332-0.2311-2.4914-0.668-3.5772-1.2949
		c-15.2162-8.7874-30.2235-17.9544-45.64-26.3735c-27.4468-14.9893-55.0594-29.6804-82.7487-44.2181
		c-24.6104-12.9215-49.4344-25.4356-74.1204-38.2136c-3.245-1.6799-6.2964-3.7643-9.3219-5.8307
		c-5.0304-3.4357-10.4489-4.7747-16.4875-3.7119c-2.0845,0.3668-4.2542,0.2512-6.338,0.6205
		c-5.3759,0.9541-9.2684,4.093-11.1382,9.1165c-4.4363,11.919-8.0048,24.1014-7.8796,36.9808
		c0.174,17.8907,4.0241,34.8112,13.7099,50.1546c2.9489,4.6714,6.855,8.1894,11.6049,10.7891
		c16.8798,9.2385,33.8539,18.306,50.7017,27.6028c46.4322,25.6207,92.823,51.3168,139.2196,77.0022
		c8.616,4.7698,17.2018,9.595,25.7525,14.4814c1.3057,0.7459,2.3709,1.9326,3.4835,2.9836c0.2569,0.2424,0.455,0.9942,0.3235,1.1113
		c-0.3103,0.2762-0.8951,0.5167-1.2631,0.4095c-1.716-0.501-3.5278-0.8865-5.0703-1.7392
		c-47.2065-26.0923-94.3747-52.2537-141.5737-78.3598C111.7264,546.9564,93.1014,536.7477,74.4497,526.5889z M555.5966,778.2906
		c-2.9352-0.1288-5.8645-0.6979-8.7656-1.2401c-17.9502-3.3559-35.8671-6.8969-53.8457-10.0897
		c-10.1909-1.8097-20.5477-2.7133-30.7069-4.665c-16.0952-3.0924-32.1066-6.6334-48.1184-10.1451
		c-21.7258-4.765-43.4331-9.6185-65.1225-14.5475c-30.8398-7.0081-61.652-14.1371-92.4842-21.1785
		c-17.1079-3.9069-34.3487-7.2955-51.3204-11.7211c-21.3903-5.577-42.5723-11.9543-63.8319-18.0298
		c-6.1183-1.7485-12.1923-3.6522-18.2897-5.4741c-7.9021-2.3611-14.3691-6.8352-19.4053-13.3339
		c-7.0845-9.142-12.9343-18.9363-15.0692-30.5061c-2.7851-15.0927,0.1423-29.2548,7.1418-42.7567
		c4.4748-8.6321,11.0363-15.4609,18.2342-21.7839c1.3542-1.1896,2.6353-2.4899,4.1102-3.5067
		c1.513-1.0437,3.2222-1.8023,4.8456-2.6854c0.1438,0.214,0.2876,0.4285,0.4314,0.6426c-0.6672,0.7591-1.2313,1.6534-2.0183,2.2559
		c-6.0131,4.6048-10.3136,10.5682-13.7455,17.2148c-1.9482,3.7732-3.8059,7.5939-5.6569,11.416
		c-0.3558,0.7347-0.6436,1.5658-0.7032,2.3715c-0.7898,10.6588-1.5714,21.3039-0.7247,32.02
		c0.7895,9.9917,2.4269,19.837,4.3354,29.651c0.8399,4.3192,3.9351,6.5545,7.8867,7.5967
		c6.6486,1.7534,13.348,3.3152,20.0349,4.9207c28.8739,6.9321,57.7511,13.8506,86.6268,20.775
		c13.3131,3.1927,50.8479,13.1992,52.9948,14.0533c4.7177,1.8773,52.0481,15.4301,68.1651,18.7282
		c14.4866,2.9641,29.0073,5.7612,43.4908,8.7404c18.3235,3.7692,36.6211,7.6649,54.9365,11.4742
		c25.8056,5.3679,51.6097,10.745,77.4308,16.0384c9.6348,1.9758,19.3101,3.7556,28.9792,5.5589
		c2.0176,0.3761,4.0859,0.4986,6.1363,0.6744c2.5593,0.2189,4.7914,1.0266,6.2278,3.3065
		C559.189,776.2762,558.2045,778.4047,555.5966,778.2906z M798.9646,601.6614c3.0128-2.1574,5.362-5.3252,7.7481-8.2457
		c1.7625-2.1574,1.2822-4.1812-0.8154-6.1304c-1.2695-1.1799-2.4807-2.4229-3.6975-3.6576
		c-0.2575-0.2615-0.4258-0.6108-0.6351-0.9193c0.0712-0.1558,0.1426-0.312,0.2139-0.4677c0.4493,0.0789,0.9261,0.0862,1.3442,0.2473
		c5.2816,2.0316,10.5917,3.996,15.8197,6.1583c5.0816,2.1016,5.7254,6.5869,1.6595,10.268
		c-8.1413,7.3705-16.8259,14.024-25.7061,20.4233h0.0105l-42.5326,31.2545c-4.5668,4.1992-9.5561,7.8916-14.683,11.4297
		c-26.6017,18.3584-53.0183,36.9916-79.8448,55.0156c-15.5905,10.4746-31.8273,19.9879-47.7787,29.9247
		c-2.0215,1.2597-4.0827,2.4557-6.1096,3.7061c-0.4851,0.2997-1.0101,0.6245-1.3415,1.0682
		c-2.9469,3.9475-7.0465,6.3488-11.3288,8.4969c-5.4647,2.7412-10.986,5.3727-16.4071,8.1973
		c-1.86,0.9688-3.5748,2.2735-5.2105,3.6037c-2.5835,2.1011-4.2083,2.3524-6.5109,0.5872
		c-0.2383-0.1822-0.4814-0.3791-0.7359-0.6053c-4.3212-3.8378-9.6423-5.2332-15.121-6.2891
		c-15.5938-3.0071-31.1882-6.0109-46.7731-9.0636c-15.3958-3.0155-30.7953-6.0158-46.1645-9.1626
		c-11.3362-2.321-22.6263-4.8668-33.9362-7.3157c-0.1758-0.0381-0.3426-0.118-0.4714-0.4584
		c3.7301,0.4599,7.4827,0.7831,11.1862,1.4017c23.0912,3.8594,46.1487,7.9283,69.2669,11.6173
		c9.3308,1.4884,18.8022,2.0751,28.1811,3.2917c6.9453,0.9012,13.8172,2.4004,20.7724,3.185
		c6.7047,0.7567,13.4691,1.0814,20.2169,1.316c3.5909,0.1249,6.6902-1.6559,9.5651-3.7002
		c17.7889-12.6497,35.516-25.3871,53.3749-37.9374c28.8158-20.2504,57.7624-40.3152,86.5703-60.5768
		C745.7916,639.5444,772.4261,620.6693,798.9646,601.6614z M796.1386,498.6105l-0.2214,0.1352
		c-1.4169,0.9227-2.832,1.8479-4.2551,2.7613c-1.3461,0.8635-2.7518,1.6525-4.1897,2.3808l-17.1982,10.4722l-8.4429,5.1411
		l-0.84,0.5113l-8.6576,5.2723c-1.1605,1.6907-2.3161,1.2921-5.5011-0.595c-9.4089-5.5745-18.7838-11.2073-28.2189-16.7373
		c-2.1556-1.2636-4.5441-2.1236-6.7456-3.3162c-4.1569-2.252-5.5417-5.457-3.9558-9.8497
		c2.8448-7.8804,6.9346-15.0393,12.7513-21.1751c4.8974-5.1665,10.53-7.5904,17.8268-6.4497
		c4.7977,0.7498,9.7449,0.6049,14.6286,0.7303c8.8322,0.2263,17.244,2.4983,25.7052,4.7826
		c9.4843,2.561,19.1317,4.5137,28.6488,6.9615c3.5049,0.9012,6.8409,2.4601,10.6942,3.8809
		c-0.7253,0.7817-0.9293,1.1059-1.2203,1.2993c-6.9349,4.6048-13.8459,9.2468-20.819,13.7924L796.1386,498.6105z"/>
	<path d="M295.3521,348.2622c-7.6296-2.7045-11.6104-3.1747-11.9464-1.4115l-8.7796,32.258l-0.9345,5.0465
		c-0.862,2.9621,2.3156,5.4933,9.5338,7.5953c10.2508,2.9846,17.8647-1.7475,22.8427-14.2003
		C309.9971,362.0414,306.4247,352.2783,295.3521,348.2622z M298.662,375.3943c-2.205,7.5718-6.2573,10.4987-12.159,8.7805
		l-2.4684-0.719l-3.0777-1.1265c4.1434-13.7909,6.6618-22.928,7.5601-27.4093C298.6933,356.1485,302.0737,362.9729,298.662,375.3943
		z"/>
	<path d="M323.3139,382.5724l0.1332-0.4584c10.3194,0.1225,16.3494-2.8015,18.0881-8.7747
		c1.8895-6.4904-1.7651-11.7231-10.961-15.7019c-4.066-0.9286-6.1534-1.2048-6.2631-0.8287
		c-5.5491-1.6153-9.2194,0.6573-11.0129,6.8175c-4.4344,14.0896-7.3661,23.5901-8.7972,28.5045
		c-0.9237,3.1737-0.2273,5.3796,2.0913,6.6158c2.726-0.2527,4.7566-2.6722,6.0908-7.2554l2.2803-7.8304l1.4105,0.4104
		c3.3216,13.644,6.2299,20.8288,8.7218,21.5547c2.1236-0.3771,3.3676-1.1882,3.731-2.4341
		C324.8576,390.4567,323.02,383.5833,323.3139,382.5724z M317.8804,375.4806l3.0905-10.6152
		c0.3634-1.246,2.8935-1.3508,7.5904-0.3145l0.9168,0.2664c3.8466,1.6809,5.4413,3.6497,4.7841,5.9076
		C333.1328,374.6039,327.6718,376.1888,317.8804,375.4806z"/>
	<path d="M350.4108,365.3257c-1.9287-0.5612-3.3696,0.3595-4.3237,2.7584l-9.1587,31.4597
		c-1.1647,3.9975-0.6651,6.3112,1.4987,6.941c1.9268,0.5613,3.5214-0.3144,4.7811-2.6252c0.6122-3.2403,1.1774-5.7528,1.6985-7.5395
		l7.2701-24.9703C352.7616,367.848,352.1739,365.839,350.4108,365.3257z"/>
	<path d="M377.4087,380.6084c2.9229-10.0392,2.8798-15.4962-0.1303-16.3729c-2.3264,0.5466-3.6165,1.2548-3.8701,2.1246
		c-0.815,2.7975-2.5615,11.9043-5.2386,27.3212c-0.2762,1.2979-0.6641,1.3625-1.1666,0.1959
		c-5.0084-17.3995-8.3828-26.3514-10.1225-26.8578c-1.6201-0.8287-2.9719,1.3155-4.0543,6.4316
		c-5.744,25.1603-7.4993,38.0647-5.265,38.7151c2.5213,0.8875,4.2404-0.0666,5.1563-2.8602
		c2.2852-10.3018,3.6086-16.0761,3.972-17.3221c0.2968-1.5457,0.7249-1.7916,1.2852-0.7356
		c4.7282,15.5579,7.7706,24.4266,9.1253,26.6071c1.9875,1.4967,3.3569,1.1686,4.1121-0.9844
		C375.672,392.7928,377.7378,380.7044,377.4087,380.6084z"/>
	<path d="M409.2005,378.7708l-1.1314,0.2057c-0.7053-0.2047-7.561,4.8124-20.5653,15.0544l-0.4947-0.144l4.0563-13.9319
		c0.6142-3.7732-0.0186-5.934-1.9003-6.4826c-2.0688-0.6014-3.6194,0.3879-4.6518,2.97l-9.8473,33.8214
		c-1.2597,4.3266-0.7258,6.8274,1.6015,7.5052c2.0688,0.6024,3.7849-0.3389,5.1465-2.825c0.67-3.5273,1.0834-5.5628,1.2411-6.1035
		c0.6436-2.2108,3.0748-4.3844,7.2936-6.5227l0.9874,0.288c1.198,14.0191,2.5135,21.2373,3.9485,21.6546l1.9748,0.575
		c1.3772-0.2615,2.5027-1.0168,3.3774-2.2686c0.0206-3.4871-1.0735-12.0826-3.2814-25.7833l0.143-0.4937
		c9.0872-7.7364,13.7821-12.1198,14.0828-13.1542l0.288-0.9874C411.1899,380.7407,410.4337,379.6142,409.2005,378.7708z"/>
	<path d="M419.5517,558.4145c2.7643-2.0638,4.0298-3.8094,3.7976-5.2356c-0.6181-1.959-2.7995-2.631-6.5462-2.0198
		c-1.1598,0.19-3.2863-3.4088-6.3777-10.7945c-3.8163-11.0629-7.0899-16.3719-9.8208-15.9263
		c-0.6289,0.1028-1.5771,0.6044-2.8436,1.5065c-0.9922,1.8239-1.5721,17.1909-1.7387,46.0999
		c0.3693,2.8691,1.7592,4.019,4.1728,3.4499c2.5243-0.188,3.5322-3.4411,3.0219-9.7601c-0.4388-2.6839,2.3636-4.5176,8.4054-5.504
		l1.0618,0.3477c2.9915,8.4436,5.7077,12.4666,8.1497,12.0679c2.1589-0.6014,2.9984-1.7681,2.5174-3.4999
		C423.1613,567.9865,421.8947,564.4083,419.5517,558.4145z M406.5327,554.3622l-3.0091,0.4917
		c-0.4369-6.7774-0.5074-11.3929-0.2135-13.8477l0.5074-0.0823c3.0121,5.8331,4.7253,10.0197,5.1396,12.5586L406.5327,554.3622z"/>
	<path d="M460.1103,519.1489c-8.0508,0.8444-11.8465,2.1354-11.39,3.8712l5.9673,32.8947l1.3302,4.9565
		c0.4976,3.0444,4.4559,3.9622,11.8749,2.7505c10.5378-1.721,15.3708-9.2713,14.502-22.6537
		C479.2612,525.2778,471.8334,518.0048,460.1103,519.1489z M467.5881,555.3721l-2.538,0.4144l-3.2618,0.3076
		c-2.2-14.2307-3.8604-23.5598-4.9809-27.9932c9.713-3.2726,15.7039,1.4312,17.9745,14.1112
		C476.0522,549.9954,473.6543,554.3808,467.5881,555.3721z"/>
	<path d="M518.5376,535.0663l-0.0764-0.4712c9.3653-4.3334,13.5479-9.569,12.5449-15.7088
		c-1.0892-6.6706-6.6403-9.8198-16.654-9.4496c-4.069,0.912-6.0712,1.5614-6.0085,1.9483
		c-5.7048,0.9315-8.0391,4.5636-7.0047,10.8954c2.0659,14.6245,3.5107,24.4629,4.3354,29.5134
		c0.5329,3.2628,2.1119,4.9545,4.7361,5.071c2.3518-1.4007,3.1424-4.4598,2.3734-9.1714l-1.3146-8.0488l1.4507-0.237
		c8.8726,10.8836,14.5912,16.1153,17.1526,15.697c1.7553-1.2538,2.5282-2.5213,2.3195-3.8026
		C523.3256,541.5175,518.707,536.1066,518.5376,535.0663z M510.5798,531.0062l-1.7818-10.912
		c-0.2096-1.2812,2.0286-2.4645,6.7147-3.5527l0.9423-0.1538c4.1954-0.1391,6.4825,0.9511,6.8616,3.2717
		C523.9681,523.6469,519.7218,527.4289,510.5798,531.0062z"/>
	<path d="M562.7714,537.2213c-2.8279,0.4623-9.2791,2.5213-19.3506,6.176l-1.5242-12.2941
		c11.824-2.5018,17.1595-5.0093,16.0036-7.5267c-0.3252-1.533-1.7073-2.252-4.1473-2.1511
		c-5.0113,0.9188-9.4515,1.916-13.3197,2.9944l-1.3488-8.4896c14.5579-3.6918,21.633-6.7823,21.2265-9.2732
		c-0.0685-2.2451-1.6622-3.114-4.7801-2.6046c-3.6017,0.5877-9.1518,1.9287-16.6501,4.021c-5.7117,1.0324-8.235,3.59-7.5679,7.6746
		c0.9501,6.4199,1.9385,12.2452,2.965,17.4739c1.0275,5.2288,1.6231,8.3398,1.7847,9.3311
		c1.1265,4.9261,2.8455,7.5493,5.1553,7.8657c2.5135-0.4105,5.1102-1.0696,7.7902-1.9786
		c13.6557-3.5949,19.77-6.8763,18.3428-9.8434C566.1106,537.3839,564.5836,536.9255,562.7714,537.2213z"/>
	<path d="M593.2006,530.057c2.7643-2.0629,4.0298-3.8085,3.7967-5.2347c-0.6171-1.959-2.7985-2.631-6.5452-2.0198
		c-1.1598,0.1901-3.2864-3.4097-6.3778-10.7945c-3.8162-11.0628-7.0898-16.3719-9.8208-15.9262
		c-0.6288,0.1029-1.576,0.6044-2.8436,1.5065c-0.9922,1.8239-1.5721,17.1908-1.7397,46.0998
		c0.3703,2.8691,1.7603,4.0181,4.1738,3.45c2.5242-0.1891,3.5322-3.4421,3.0219-9.7601c-0.4388-2.684,2.3636-4.5176,8.4054-5.504
		l1.0618,0.3477c2.9915,8.4436,5.7078,12.4666,8.1487,12.0679c2.1599-0.6014,2.9993-1.7681,2.5174-3.4999
		C596.8102,539.63,595.5437,536.0518,593.2006,530.057z M580.1816,526.0056l-3.0092,0.4908
		c-0.4368-6.7764-0.5084-11.392-0.2135-13.8467l0.5074-0.0833c3.0121,5.8341,4.7253,10.0206,5.1396,12.5596L580.1816,526.0056z"/>
	<path d="M604.3585,495.594c-8.0508,0.8434-11.8465,2.1344-11.39,3.8711l5.9673,32.8937l1.3302,4.9565
		c0.4976,3.0444,4.4559,3.9622,11.8749,2.7505c10.5378-1.721,15.3708-9.2713,14.501-22.6527
		C623.5094,501.722,616.0816,494.4499,604.3585,495.594z M611.8363,531.8162l-2.538,0.4144l-3.2618,0.3085
		c-2.2-14.2307-3.8604-23.5607-4.9809-27.9941c9.7131-3.2726,15.7039,1.4311,17.9734,14.1112
		C620.3004,526.4396,617.9025,530.825,611.8363,531.8162z"/>
	<path d="M479.7926,415.9305c-0.1117,3.9906-1.913,6.3229-5.406,6.9939c-5.7959,1.4507-9.621-1.53-11.4762-8.9412
		c-1.9326-7.7197-0.7435-13.7605,3.5674-18.1214c1.965-1.9307,3.6096-2.1657,4.9349-0.7053
		c2.632,3.6586,5.1004,5.1994,7.4043,4.6224c1.39-1.3077,1.8738-2.8044,1.4507-4.4912c-1.4742-5.8919-5.6921-8.4201-12.6526-7.5865
		c-3.6762,0.6426-6.6716,2.9455-8.9872,6.9067c-3.9475,6.2141-4.931,13.2766-2.9514,21.1863
		c1.0941,2.9582,2.7456,6.128,4.9555,9.5132c3.3578,4.6381,8.5043,6.0878,15.4414,4.3521l2.3871-0.5975
		c6.0623-3.1081,8.518-6.9655,7.3641-11.5752C484.0056,412.5413,481.9955,412.0211,479.7926,415.9305z"/>
	<path d="M503.1241,381.0091c-2.489-0.9668-4.9829-0.7464-7.4827,0.6612c-0.9276-0.576-2.1031-0.6347-3.5283-0.1773
		c-6.8577,6.4875-9.3085,13.64-7.3534,21.4557c4.3158,14.0152,11.0149,20.3028,20.0961,18.8619
		c10.0892-3.5596,14.0034-11.9738,11.7426-25.2416C513.6796,386.7227,509.1884,381.536,503.1241,381.0091z M503.7216,413.4992
		c-5.1543,0.6847-8.8569-2.9582-11.104-10.9277c-1.3018-4.8996-1.0863-8.7776,0.6475-11.6359
		c1.4203,1.5388,3.2922,0.6534,5.6206-2.6565c4.8575-0.862,8.808,2.5674,11.8514,10.2871
		C511.7852,406.281,509.446,411.259,503.7216,413.4992z"/>
	<path d="M536.6144,386.5238l-11.153,2.7917l-1.9091-7.6266c12.5135-4.6714,18.5259-7.9812,18.0381-9.9295l-0.383-1.531
		c-1.4438-1.4311-3.0092-1.9366-4.6959-1.5144c-0.6298,0.4104-5.6803,2.5703-15.1524,6.4816l-3.4029-0.7396
		c-2.1148,0.5299-2.9631,2.1814-2.5468,4.9555l8.6512,34.5629c1.1,4.3961,2.8377,6.2955,5.2141,5.7009
		c2.1138-0.529,3.1287-2.2226,3.0454-5.0799c-1.2009-3.3843-2.0453-6.0506-2.5331-7.9989l-2.4175-9.6573l6.5922-1.6505
		c7.6609-2.4713,11.2186-4.7997,10.6711-6.986C544.0392,385.9273,541.3651,385.3347,536.6144,386.5238z"/>
	<path d="M565.2286,379.3615l-11.153,2.7917l-1.9091-7.6266c12.5126-4.6714,18.525-7.9812,18.0372-9.9295l-0.383-1.531
		c-1.4438-1.4311-3.0092-1.9366-4.6959-1.5144c-0.6288,0.4104-5.6793,2.5713-15.1514,6.4826l-3.4039-0.7396
		c-2.1148,0.529-2.9631,2.1805-2.5458,4.9545l8.6512,34.5629c1.1,4.3961,2.8377,6.2964,5.2131,5.7019
		c2.1138-0.5299,3.1296-2.2235,3.0453-5.0799c-1.2019-3.3843-2.0443-6.0516-2.5321-7.9999l-2.4175-9.6572l6.5923-1.6495
		c7.66-2.4713,11.2176-4.8007,10.671-6.987C572.6515,378.765,569.9793,378.1723,565.2286,379.3615z"/>
	<path d="M606.6932,389.2009c-2.7789,0.6964-9.0362,3.2854-18.7689,7.7657l-2.5429-12.1237
		c11.5742-3.4774,16.6825-6.4218,15.3209-8.8334c-0.4515-1.5016-1.8895-2.1021-4.3119-1.7984
		c-4.9173,1.3322-9.2596,2.6967-13.0239,4.0935l-2.0521-8.3476c14.2003-4.8908,20.9934-8.5611,20.3812-11.009
		c-0.2556-2.2324-1.9169-2.966-4.9809-2.199c-3.54,0.8865-8.9588,2.6849-16.2573,5.3953c-5.6059,1.5046-7.9068,4.2639-6.9018,8.279
		c1.481,6.319,2.9513,12.0404,4.4099,17.1654c1.4604,5.1259,2.3117,8.1762,2.5556,9.1498c1.533,4.8164,3.4646,7.2858,5.793,7.4102
		c2.4704-0.619,5.0035-1.4918,7.5983-2.6212c13.3079-4.7204,19.1283-8.4994,17.4582-11.3381
		C610.0344,389.0853,608.475,388.7552,606.6932,389.2009z"/>
	<path d="M638.6564,381.201c-2.7799,0.6955-9.0362,3.2844-18.7689,7.7648l-2.5429-12.1237
		c11.5742-3.4773,16.6825-6.4218,15.3209-8.8334c-0.4515-1.5016-1.8895-2.1021-4.3129-1.7984
		c-4.9163,1.3332-9.2586,2.6976-13.0229,4.0935l-2.0521-8.3476c14.2003-4.8908,20.9934-8.5611,20.3812-11.009
		c-0.2556-2.2314-1.9169-2.9651-4.9809-2.1981c-3.54,0.8855-8.9589,2.6849-16.2573,5.3943
		c-5.6069,1.5055-7.9068,4.2639-6.9018,8.279c1.481,6.319,2.9513,12.0404,4.4099,17.1663c1.4595,5.1249,2.3117,8.1752,2.5556,9.1489
		c1.533,4.8164,3.4646,7.2858,5.792,7.4102c2.4704-0.6181,5.0034-1.4919,7.5992-2.6212
		c13.308-4.7194,19.1284-8.4984,17.4583-11.3381C641.9966,381.0845,640.4382,380.7544,638.6564,381.201z"/>
	<path d="M614.6412,676.6473c1.052-4.7517,0.7532-8.7012-0.8973-11.8504c-3.9122-9.1988-12.7594-9.7571-26.5434-1.675
		l-4.2884,2.7574c-3.7947,2.441-4.4726,5.5588-2.0316,9.3546c3.6301,5.645,10.3527,15.413,20.1676,29.3037
		c1.3018,1.8131,2.4812,3.2785,3.541,4.3962c1.8376,2.8593,6.2269,2.056,13.1689-2.4077
		c11.294-8.8932,14.5627-17.038,9.8051-24.4365C624.9214,677.9824,620.6144,676.1683,614.6412,676.6473z M600.1911,680.2353
		c-2.3313,1.4977-3.8927,1.8396-4.688,1.0266l-5.8145-9.044l5.3914-4.1298c5.1582-2.4332,8.6561-2.2216,10.4947,0.6377
		c1.5271,4.3824,0.3683,7.8098-3.4744,10.2812L600.1911,680.2353z M616.9911,696.9354c-2.4498,1.5761-5.1857,2.8926-8.2056,3.9505
		l-7.322-11.3861c-0.6455-0.7386-0.2772-1.1951,1.1039-1.3713c9.8336-3.5048,15.6314-3.8878,17.3926-1.15
		C621.9681,690.1012,620.9788,693.4208,616.9911,696.9354z"/>
	<path d="M633.6578,635.4892c-3.1129-0.1381-5.7851,1.0373-8.0204,3.5273c-1.2391-0.2889-2.5605,0.0852-3.9632,1.1226
		c-5.1523,9.7307-5.1876,18.5475-0.1058,26.4504c10.007,13.8712,19.7552,18.3143,29.2499,13.3295
		c9.8159-7.704,10.9973-18.4623,3.541-32.2757C647.4536,637.8568,640.5538,633.8054,633.6578,635.4892z M646.4594,671.1599
		c-5.4394,2.6829-10.8895,0.0431-16.3504-7.9235c-3.2697-4.9251-4.4814-9.2899-3.6331-13.0954
		c2.1423,1.1686,3.8809-0.5103,5.2151-5.0358c5.0455-2.7672,10.6906-0.4565,16.9381,6.9351
		C652.6707,660.1725,651.9457,666.5453,646.4594,671.1599z"/>
	<path d="M668.4284,613.1293c-3.112-0.1371-5.7842,1.0383-8.0195,3.5273c-1.2391-0.289-2.5605,0.0862-3.9642,1.1235
		c-5.1523,9.7297-5.1866,18.5464-0.1048,26.4493c10.0059,13.8722,19.7552,18.3154,29.2489,13.3305
		c9.8169-7.704,10.9973-18.4633,3.541-32.2756C682.2252,615.4969,675.3253,611.4465,668.4284,613.1293z M681.2309,648.8011
		c-5.4393,2.6829-10.8895,0.0421-16.3514-7.9235c-3.2697-4.9261-4.4803-9.2909-3.6321-13.0954
		c2.1412,1.1676,3.8809-0.5104,5.215-5.0358c5.0456-2.7681,10.6907-0.4564,16.9381,6.9351
		C687.4412,637.8136,686.7173,644.1865,681.2309,648.8011z"/>
	<path d="M708.4532,610.8216l-0.3233-0.5045c0.1499-13.9163-0.1136-21.4028-0.7934-22.4608l-0.6484-1.0089
		c-1.4517-0.8317-3.0219-1.0275-4.7076-0.5887l-0.6857,1.1529c-0.7209,0.4633-1.5536,10.337-2.4978,29.6191l-0.5035,0.3242
		l-9.1528-14.2326c-2.8504-3.4294-5.2375-4.5274-7.1584-3.2913c-2.1149,1.3596-2.4312,3.4813-0.9502,6.3651l22.2208,34.555
		c2.8416,4.4207,5.4521,5.8665,7.8304,4.3364c2.1129-1.3596,2.5987-3.588,1.4526-6.6893c-2.5908-3.2902-4.063-5.2131-4.4196-5.7655
		c-1.4517-2.2578-1.5036-6.0613-0.1558-11.4106l1.0089-0.6485c13.2531,9.6788,20.6104,14.0466,22.0758,13.1042l2.0178-1.2979
		c0.8238-1.4115,1.0207-2.9817,0.5897-4.7076C730.5984,624.9837,722.2,619.367,708.4532,610.8216z"/>
	<path d="M730.8865,593.7483c-3.9651,1.2264-6.6432,0.5867-8.0302-1.916c-1.389-2.5018,0.3722-5.6382,5.2816-9.4075
		c3.4597-2.2236,6.4551-2.8181,8.9902-1.7828c2.5331,1.0374,4.2081,1.293,5.025,0.767c2.4008-1.9169,2.9592-3.8211,1.675-5.7116
		c-4.9643-4.9222-11.5605-5.1465-19.7856-0.672c-9.8002,7.2535-12.0982,14.7401-6.8959,22.4647
		c2.6104,4.0592,6.7764,6.0496,12.4979,5.9693c11.8347-3.7732,18.6014-4.3384,20.2999-1.6966
		c2.0864,3.2433,0.9325,6.6511-3.4597,10.2214c-3.4597,2.2245-6.4571,2.8201-8.9902,1.7828c-2.5331-1.0353-4.209-1.291-5.025-0.766
		c-1.8258,1.1735-2.3763,3.0895-1.6515,5.7489c3.1502,4.8996,9.1136,5.5128,17.8883,1.8395
		c11.3734-6.9723,14.2963-14.8635,8.7687-23.6694c-2.2774-3.593-5.2042-5.4796-8.7825-5.6578
		C742.3862,591.2769,736.4512,592.1046,730.8865,593.7483z"/>
	<path d="M374.5401,692.7097c1.6451,7.7305,6.3728,12.304,14.1851,13.7213c12.3831,2.2478,20.0923-1.0649,23.1476-9.9128
		c1.6172,7.1599,5.617,11.6241,12.0133,13.3775c12.4323,1.0667,20.6368-5.9928,24.6118-21.1785
		c1.6309-11.8651-0.649-19.5358-6.8391-23.0103c-2.1795-2.2245-4.9364-3.1894-8.2697-2.8945
		c-0.7082-1.0559-1.9297-1.6848-3.663-1.8846c-10.4066,3.5978-16.4483,10.0187-18.1258,19.2635
		c-0.2791,2.2015-0.4478,4.2781-0.5164,6.2418c-1.9495-3.2648-5.5246-5.3779-10.7453-6.3251
		c-7.5595-1.3723-11.9772-0.9394-13.2536,1.2959l-0.4359,2.4019c0.3556,1.7191,1.6148,2.776,3.7791,3.1678
		c9.8468,0.5966,14.693,2.2902,14.5353,5.076c-0.6068,5.2601-5.1043,7.3318-13.4936,6.2151
		c-7.1937-1.3057-9.9565-6.5521-8.2888-15.7411c1.7338-9.5534,6.1906-15.9595,13.3701-19.2126
		c2.6408-0.7983,4.5979-0.2243,5.8704,1.7181c0.9012,5.9115,2.6021,9.093,5.1034,9.5475c2.5869-0.6631,4.07-2.0335,4.4476-4.1141
		c1.3312-7.3328-2.0967-12.2794-10.2812-14.8399c-3.3725-0.6122-6.5222-0.3703-9.4491,0.7229
		c-10.2464,6.559-16.2598,14.742-18.0396,24.5481C373.9832,682.1023,374.0959,686.041,374.5401,692.7097z M420.1306,683.5687
		c0.9712-5.8312,3.064-9.8483,6.2798-12.0512c0.7699,2.3156,3.1854,2.2745,7.2495-0.1224c5.577,1.4183,8.1267,6.9606,7.6497,16.6276
		c-2.5958,8.7012-7.4724,12.8662-14.6333,12.495C420.8697,698.7671,418.6868,693.1191,420.1306,683.5687z"/>
	<path d="M464.5613,717.2784c12.4327,1.0657,20.6368-5.9938,24.6118-21.1785c1.6319-11.8661-0.649-19.5368-6.8391-23.0112
		c-2.1795-2.2245-4.9359-3.1884-8.2697-2.8945c-0.7077-1.0559-1.9292-1.6848-3.663-1.8837
		c-10.4056,3.5978-16.4483,10.0187-18.1258,19.2635C450.1249,704.5415,454.2199,714.4426,464.5613,717.2784z M460.8058,690.9514
		c0.9717-5.8322,3.065-9.8492,6.2803-12.0522c0.7694,2.3156,3.1854,2.2755,7.249-0.1224c5.577,1.4193,8.1267,6.9615,7.6497,16.6285
		c-2.5953,8.7012-7.4724,12.8652-14.6333,12.495C461.5448,706.1489,459.3629,700.5009,460.8058,690.9514z"/>
	<path d="M501.5681,728.5656c12.251,2.2235,20.511-4.1865,24.7808-19.2312c2.6834-18.4672-2.6393-29.3606-15.9694-32.6793
		c-9.1763-2.2157-13.8521-2.2813-14.0284-0.1949l-6.2862,38.479l-0.4731,5.9654
		C488.9488,724.4466,492.9404,727.0002,501.5681,728.5656z M503.2554,685.2015c11.9523,0.1959,16.6991,7.704,14.2415,22.5264
		c-1.6422,9.048-5.9894,12.9318-13.0425,11.6525l-2.9508-0.5358l-3.7061-0.9335
		C500.9368,701.4128,502.7558,690.5096,503.2554,685.2015z"/>
	<path d="M76.1094,443.9459c19.7466,11.1175,39.4933,22.2347,59.2399,33.3519c31.4524,17.7078,62.9049,35.4156,94.3573,53.1231
		c7.1909,4.0484,14.3818,8.0968,21.5725,12.1453c2.059,1.1592,5.3591-2.3658,2.8192-3.796
		c-19.7466-11.1172-39.4932-22.2347-59.2399-33.3519c-31.4524-17.7076-62.9048-35.4153-94.3573-53.1231
		c-7.1908-4.0484-14.3817-8.0968-21.5726-12.1452C76.8696,438.9906,73.5696,442.516,76.1094,443.9459z"/>
	<path d="M258.1552,562.5569c-42.8664-24.2704-85.7328-48.5411-128.5992-72.8115c-5.9626-3.3759-11.9252-6.7519-17.8878-10.1279
		c-2.0303-1.1495-6.0336,1.7156-3.5527,3.1203c42.8665,24.2704,85.7328,48.5408,128.5993,72.8115
		c5.9624,3.376,11.9251,6.7517,17.8876,10.1276C256.6331,566.8268,260.6362,563.9616,258.1552,562.5569z"/>
	<path d="M178.6001,543.6681c-29.0388-16.104-58.0774-32.2081-87.1161-48.3121c-4.1939-2.3259-8.3879-4.6518-12.5819-6.9774
		c-2.0657-1.1456-5.3153,2.4209-2.7663,3.8346c29.0387,16.104,58.0773,32.2081,87.1159,48.3121
		c4.194,2.3257,8.388,4.6516,12.5819,6.9775C177.8994,548.6483,181.149,545.0816,178.6001,543.6681z"/>
	<path d="M131.0872,607.9799c23.1831,6.0712,46.5787,11.1674,70.0602,15.9579c2.7335,0.5576,4.8956-2.8287,1.6634-3.4882
		c-23.4815-4.7902-46.8771-9.8867-70.0602-15.9578C130.0155,603.7758,127.8955,607.1442,131.0872,607.9799z"/>
	<path d="M145.8489,632.5222c25.8301,6.2681,52.1237,11.0083,78.1599,16.3112c2.7334,0.5569,4.8958-2.8293,1.6634-3.4879
		c-26.0363-5.303-52.3299-10.0434-78.1599-16.3115C144.7758,628.3702,142.6417,631.744,145.8489,632.5222z"/>
	<path d="M323.1187,688.5707c-49.7457-7.1705-98.3767-18.8201-147.1708-30.6494c-17.0795-4.1407-34.1776-8.2031-51.3072-12.1318
		c-1.6958-0.3889-3.0245,1.7044-1.0308,2.1616c51.4064,11.7902,102.3879,25.7645,154.2424,35.515
		c14.9597,2.813,29.985,5.254,45.0508,7.4256C324.8281,691.1691,325.0249,688.8454,323.1187,688.5707z"/>
</g>
</svg>
